<svg id="Layer_1" data-name="Layer 1" xmlns="http://www.w3.org/2000/svg" xmlns:xlink="http://www.w3.org/1999/xlink" width="2871" height="797.68" viewBox="0 0 2871 797.68"><title>Haerloebetl-logo2</title><image width="2871" height="890" transform="translate(0 -92.32)" xlink:href="LOGO_FRONT_BLACK.png"/><rect x="20.95" y="618.38" width="755.48" height="75.91"/><rect x="2094.57" y="618.38" width="755.48" height="75.91"/><path d="M858.13,693.6V623.7h11.8V654h34.7V623.7h11.8v69.9h-11.8V665h-34.7v28.6Z"/><path d="M967.73,693.6H954.52l-28.1-69.9h13.21l21.5,52.2,21.5-52.2h13.2Z"/><path d="M1054.92,623.7v11.1h-37.3v18.5h33.5v10.5h-33.5v18.7h38.5v11.1h-50.3V623.7Z"/><path d="M1083,693.6h-11.8V623.7h18.4l21.1,43.9,21.1-43.9h18.3v69.9h-11.8V639l-24.4,48.5h-6.6L1083,639Z"/><path d="M1196.92,693.6V623.7h11.8v58.7h31.9v11.2Z"/><path d="M1322.62,658.1q0,15.51-10.6,25.85t-26.2,10.35a41.52,41.52,0,0,1-10.1-1.2l-5.7,12.2h-10l7.3-15.6a34,34,0,0,1-13.4-13,36.1,36.1,0,0,1-4.9-18.65q0-15.39,10.6-25.75t26.2-10.35a40.06,40.06,0,0,1,12.1,1.9l5.4-11.4h10l-7.1,15.3a34.65,34.65,0,0,1,12,12.75A35.67,35.67,0,0,1,1322.62,658.1Zm-36.8-25.3a23.48,23.48,0,0,0-17.55,7.4,25,25,0,0,0-7.15,18,25.5,25.5,0,0,0,3,12.1,24.91,24.91,0,0,0,8,9.1l21.2-45.4A23.56,23.56,0,0,0,1285.82,632.8Zm24.7,25.4a24.77,24.77,0,0,0-9.2-19.9l-20.9,44.7a30.15,30.15,0,0,0,5.4.5,23.44,23.44,0,0,0,17.55-7.4A24.8,24.8,0,0,0,1310.52,658.2Z"/><path d="M1368.12,693.6h-30.6V623.7h27.2a39.34,39.34,0,0,1,12.25,1.7,16.93,16.93,0,0,1,7.65,4.6,17.88,17.88,0,0,1,4.8,12.2q0,8.2-5.2,12.2a21.56,21.56,0,0,1-2.6,1.75c-.47.24-1.3.62-2.5,1.15a18.42,18.42,0,0,1,10.35,5.85,16.28,16.28,0,0,1,3.85,11.05,18.8,18.8,0,0,1-5,12.9Q1382.43,693.61,1368.12,693.6Zm-18.8-40.9h15q12.79,0,12.8-8.7,0-5-3.1-7.2c-2.07-1.46-5.27-2.2-9.6-2.2h-15.1Zm0,30h18.5q6.5,0,10-2.05c2.3-1.36,3.45-3.95,3.45-7.75q0-9.3-14.9-9.3h-17Z"/><path d="M1457.22,623.7v11.1h-37.3v18.5h33.5v10.5h-33.5v18.7h38.5v11.1h-50.3V623.7Z"/><path d="M1529.32,646.4q0,17.31-15.1,21.8l18.3,25.4h-15l-16.7-23.5h-15.5v23.5h-11.8V623.7h26q16,0,22.9,5.4T1529.32,646.4Zm-15.7,9.9q3.6-3.09,3.6-9.95t-3.7-9.4q-3.7-2.55-13.2-2.55h-15v25H1500Q1510,659.4,1513.62,656.3Z"/><path d="M1626.62,632.85q10.1,9.15,10.1,25.45t-9.8,25.8q-9.81,9.51-30,9.5h-23.2V623.7h24Q1616.52,623.7,1626.62,632.85Zm-1.8,25.75q0-24-27.5-24h-11.8v47.9h13.1q12.69,0,19.45-6T1624.82,658.6Z"/><path d="M1667.62,677.6q4.8,5.61,13,5.6t13-5.6q4.8-5.6,4.8-15.2V623.7h11.8v39.2q0,15.11-8.3,23.25t-21.3,8.15q-13,0-21.3-8.15T1651,662.9V623.7h11.8v38.7Q1662.82,672,1667.62,677.6Z"/><path d="M1767.91,634.7v19.2h31v10.9h-31v28.8h-11.8V623.7h46.6l-.1,11Z"/><path d="M1875,684q-10.59,10.35-26.2,10.35T1822.61,684q-10.6-10.35-10.6-25.8t10.6-25.8q10.61-10.35,26.2-10.35t26.2,10.35q10.6,10.35,10.6,25.8T1875,684Zm-8.65-43.75a24.51,24.51,0,0,0-35.1,0,26.11,26.11,0,0,0,0,35.9,24.51,24.51,0,0,0,35.1,0,26.11,26.11,0,0,0,0-35.9Z"/><path d="M1956.31,646.4q0,17.31-15.1,21.8l18.3,25.4h-15l-16.7-23.5h-15.5v23.5h-11.8V623.7h26q16,0,22.9,5.4T1956.31,646.4Zm-15.7,9.9q3.6-3.09,3.6-9.95t-3.7-9.4c-2.47-1.7-6.86-2.55-13.2-2.55h-15v25H1927Q1937,659.4,1940.61,656.3Z"/><path d="M1993.81,671.9h-11.3v-6.1a14.28,14.28,0,0,1,1-5.95,22.14,22.14,0,0,1,4.15-5.15l7.3-7.3a8.77,8.77,0,0,0,2.3-6.2,8.45,8.45,0,0,0-2.4-6.15,8.3,8.3,0,0,0-6.2-2.45,9,9,0,0,0-6.35,2.35,9.5,9.5,0,0,0-3,6.25h-12.1q1-8.9,7-14a22.2,22.2,0,0,1,14.85-5q8.91,0,14.5,4.85t5.6,13.55a15.18,15.18,0,0,1-3.3,10,41.9,41.9,0,0,1-2.9,3.4c-.66.67-1.55,1.52-2.65,2.55s-2,1.94-2.8,2.7-1.38,1.42-1.85,2a9.56,9.56,0,0,0-1.8,6.2Zm-5.45,22.2a7.7,7.7,0,0,1-5.45-2.15,6.86,6.86,0,0,1-2.3-5.2,7.1,7.1,0,0,1,2.25-5.25,7.48,7.48,0,0,1,5.4-2.2,7.72,7.72,0,0,1,5.45,2.15,6.85,6.85,0,0,1,2.3,5.2,7.07,7.07,0,0,1-2.25,5.25A7.44,7.44,0,0,1,1988.36,694.1Z"/></svg>
